<?xml version="1.0" encoding="UTF-8"?><svg id="Layer_5" xmlns="http://www.w3.org/2000/svg" xmlns:xlink="http://www.w3.org/1999/xlink" viewBox="0 0 1895.46 1082"><defs><style>.cls-1,.cls-2,.cls-3,.cls-4,.cls-5,.cls-6{fill:#fff;}.cls-2{font-size:75.98px;}.cls-2,.cls-7,.cls-8,.cls-5{font-family:Bahnschrift-Light, Bahnschrift;font-variation-settings:'wght' 300, 'wdth' 100;}.cls-9{stroke:#000;}.cls-9,.cls-3,.cls-10,.cls-6{stroke-miterlimit:10;}.cls-9,.cls-10{fill:none;}.cls-3{filter:url(#outer-glow-1);stroke:#d4145a;}.cls-10,.cls-6{stroke:#fff;}.cls-4{opacity:.32;}.cls-7{font-size:37.99px;}.cls-11{fill:#83d6f2;}.cls-12{letter-spacing:0em;}.cls-8,.cls-5{font-size:54.27px;}.cls-13{letter-spacing:-.02em;}.cls-14{letter-spacing:-.01em;}.cls-15{letter-spacing:0em;}.cls-16{fill:#1e77d8;}.cls-17{fill:#f2f2f2;}.cls-18{letter-spacing:0em;}</style><filter id="outer-glow-1" filterUnits="userSpaceOnUse"><feOffset dx="0" dy="0"/><feGaussianBlur result="blur" stdDeviation="26"/><feFlood flood-color="#d4145a" flood-opacity="1"/><feComposite in2="blur" operator="in"/><feComposite in="SourceGraphic"/></filter></defs><g><g><rect class="cls-1" x="611.35" y="2.29" width="719.35" height="1079.21"/><path class="cls-16" d="M1330.2,2.79V1081H611.85V2.79h718.36m1-1H610.85V1082h720.36V1.79h0Z"/></g><rect class="cls-11" x="611.85" y="2.79" width="718.36" height="80.43"/><rect class="cls-17" x="611.85" y="1000.57" width="718.36" height="80.43"/><rect class="cls-11" x="611.85" y="184.44" width="718.36" height="642.77"/><rect class="cls-6" x="725.11" y="670.66" width="491.83" height="45.27" rx="1.78" ry="1.78"/><rect class="cls-3" x="725.11" y="567.77" width="491.83" height="71.94" rx="1.78" ry="1.78"/><g><rect class="cls-10" x="725.11" y="459.33" width="491.83" height="78.63" rx="1.78" ry="1.78"/><rect class="cls-4" x="725.11" y="459.33" width="491.83" height="78.63" rx="1.78" ry="1.78"/></g><g><rect class="cls-10" x="725.11" y="351.59" width="491.83" height="78.63" rx="1.78" ry="1.78"/><rect class="cls-4" x="725.11" y="351.59" width="491.83" height="78.63" rx="1.78" ry="1.78"/></g><text class="cls-2" transform="translate(875.97 303.52)"><tspan x="0" y="0">Hello!</tspan></text></g><text class="cls-5" transform="translate(894.9 410.85)"><tspan x="0" y="0">Email</tspan></text><text class="cls-5" transform="translate(849.64 519.1)"><tspan class="cls-13" x="0" y="0">P</tspan><tspan x="32.46" y="0">as</tspan><tspan class="cls-14" x="89.49" y="0">s</tspan><tspan class="cls-12" x="116.84" y="0">w</tspan><tspan x="158.29" y="0">o</tspan><tspan class="cls-15" x="187.87" y="0">r</tspan><tspan x="210.5" y="0">d</tspan></text><text class="cls-8" transform="translate(902.29 621.6)"><tspan x="0" y="0">Login</tspan></text><text class="cls-7" transform="translate(909.71 704.62)"><tspan x="0" y="0">Fo</tspan><tspan class="cls-18" x="41.94" y="0">r</tspan><tspan x="57.79" y="0">got?</tspan></text><g><line class="cls-9" x1="690.7" y1="1023.38" x2="690.7" y2="1062.12"/><line class="cls-9" x1="708.62" y1="1023.38" x2="708.62" y2="1062.12"/><line class="cls-9" x1="725.11" y1="1023.38" x2="725.11" y2="1062.12"/></g><rect class="cls-9" x="951.65" y="1023.38" width="38.74" height="38.74"/><polyline class="cls-9" points="1240.65 1019.44 1220.8 1039.29 1240.17 1058.66"/></svg>